<svg xmlns="http://www.w3.org/2000/svg" width="32" height="32" viewBox="0 0 32 32">
  <g id="그룹_76" data-name="그룹 76" transform="translate(-763 -404)">
    <rect id="사각형_25" data-name="사각형 25" width="32" height="32" transform="translate(763 404)" fill="rgba(199,199,199,0)"/>
    <g id="folder-open-side-svgrepo-com" transform="translate(768.883 409.883)">
      <rect id="사각형_128" data-name="사각형 128" width="20" height="20" transform="translate(0.117 0.117)" fill="none"/>
      <path id="패스_29" data-name="패스 29" d="M4,8.215V6.084a1.686,1.686,0,0,1,.178-.754L4.843,4H9.058L9.9,5.686h8.431a.843.843,0,0,1,.843.843V15.8a1.686,1.686,0,0,1-1.686,1.686H15.8" transform="translate(-0.628 -0.628)" fill="none" stroke="#fff" stroke-linecap="round" stroke-linejoin="round" stroke-width="1"/>
      <path id="패스_30" data-name="패스 30" d="M14.736,9H2.152a.843.843,0,0,0-.813,1.065l1.9,6.966a1.686,1.686,0,0,0,1.627,1.242h11.94a.843.843,0,0,0,.813-1.065L15.55,9.621A.843.843,0,0,0,14.736,9Z" transform="translate(-0.205 -1.413)" fill="none" stroke="#fff" stroke-width="1"/>
    </g>
  </g>
</svg>
