<svg xmlns="http://www.w3.org/2000/svg" width="28" height="28" viewBox="0 0 28 28">
  <g id="그룹_74" data-name="그룹 74" transform="translate(-1750 -49)">
    <rect id="사각형_126" data-name="사각형 126" width="28" height="28" transform="translate(1750 49)" opacity="0"/>
    <path id="logout-svgrepo-com" d="M0,9.614V21.047a3.9,3.9,0,0,0,1.141,2.719A3.662,3.662,0,0,0,3.8,24.847H9.533V22.479H3.8a1.41,1.41,0,0,1-1.4-1.433V9.614a1.385,1.385,0,0,1,1.4-1.4H9.533v-2.4H3.8A3.688,3.688,0,0,0,1.141,6.924,3.832,3.832,0,0,0,0,9.614Zm6.287,3.451v4.561a1,1,0,0,0,.995.965h5.292v3.6a.8.8,0,0,0,.468.731,1.222,1.222,0,0,0,.293.029.707.707,0,0,0,.527-.2l6.872-6.872a.749.749,0,0,0,0-1.082L13.861,7.946a.759.759,0,0,0-1.287.527V12.1H7.282a1,1,0,0,0-.995.965Z" transform="translate(1754 47.188)" fill="#454545"/>
  </g>
</svg>
