<svg xmlns="http://www.w3.org/2000/svg" width="28" height="28" viewBox="0 0 28 28">
  <g id="그룹_73" data-name="그룹 73" transform="translate(-1505.658 -24)">
    <g id="user-svgrepo-com" transform="translate(1506.658 25)">
      <path id="패스_23" data-name="패스 23" d="M12.318,12.429A5.214,5.214,0,1,0,7.077,7.214,5.228,5.228,0,0,0,12.318,12.429Z" transform="translate(0.199)" fill="#454545"/>
      <path id="패스_24" data-name="패스 24" d="M15.246,13.837H9.787A5.811,5.811,0,0,0,4,19.594a1.841,1.841,0,0,0,.983,1.738c.983.543,3.166,1.195,7.534,1.195s6.551-.652,7.534-1.195a2.055,2.055,0,0,0,.983-1.738A5.741,5.741,0,0,0,15.246,13.837Z" transform="translate(0 0.765)" fill="#454545"/>
    </g>
    <rect id="사각형_125" data-name="사각형 125" width="28" height="28" transform="translate(1505.658 24)" fill="#fff" opacity="0"/>
  </g>
</svg>
