<svg xmlns="http://www.w3.org/2000/svg" width="15" height="15" viewBox="0 0 15 15">
  <g id="그룹_78" data-name="그룹 78" transform="translate(-767 -107)">
    <rect id="사각형_130" data-name="사각형 130" width="15" height="15" transform="translate(767 107)" fill="rgba(255,255,255,0)"/>
    <path id="close-bold-svgrepo-com" d="M176.82,176.821a1.269,1.269,0,0,1,1.794,0l4.487,4.487,4.487-4.487a1.269,1.269,0,1,1,1.794,1.794L184.9,183.1l4.487,4.487a1.269,1.269,0,1,1-1.794,1.794L183.1,184.9l-4.487,4.487a1.269,1.269,0,1,1-1.794-1.794l4.487-4.487-4.487-4.487A1.269,1.269,0,0,1,176.82,176.821Z" transform="translate(591.552 -68.449)" fill="#9f9f9f"/>
  </g>
</svg>
